<svg width="140" height="27" viewBox="0 0 140 27" fill="none" xmlns="http://www.w3.org/2000/svg">
<g id="ethindia" clip-path="url(#clip0_395_690)">
<g id="Clip path group">
<mask id="mask0_395_690" style="mask-type:luminance" maskUnits="userSpaceOnUse" x="0" y="0" width="35" height="27">
<g id="clip0_762_23050">
<path id="Vector" d="M34.2951 0.986816H0.79248V26.0134H34.2951V0.986816Z" fill="white"/>
</g>
</mask>
<g mask="url(#mask0_395_690)">
<g id="Group">
<g id="Mask group">
<mask id="mask1_395_690" style="mask-type:alpha" maskUnits="userSpaceOnUse" x="2" y="17" width="31" height="10">
<g id="Group_2">
<path id="Vector_2" d="M2.96021 17.7568H32.39V26.1137H2.96021V17.7568Z" fill="white"/>
</g>
</mask>
<g mask="url(#mask1_395_690)">
<g id="Group_3">
<path id="Vector_3" fill-rule="evenodd" clip-rule="evenodd" d="M10.9407 25.6137C8.43856 25.6137 5.95751 24.7308 3.83629 23.0369L3.4624 22.7376L7.28874 18.4345C7.36918 18.3441 7.48241 18.2891 7.60351 18.2819C7.72461 18.2745 7.84368 18.3154 7.93451 18.3955C8.02534 18.4756 8.0805 18.5884 8.08785 18.709C8.0952 18.8296 8.05414 18.9483 7.9737 19.0387L4.79011 22.618C7.46363 24.5816 10.6919 25.1947 13.7188 24.2983L17.423 23.1996L21.1272 24.2983C24.1524 25.1947 27.3803 24.5816 30.0543 22.6195L26.8306 19.0167C26.7499 18.9264 26.7085 18.8079 26.7156 18.6873C26.7227 18.5666 26.7776 18.4538 26.8682 18.3735C26.9589 18.2932 27.0778 18.252 27.1989 18.2591C27.32 18.2661 27.4333 18.3208 27.514 18.4111L31.3845 22.7371L31.0091 23.0374C28.026 25.42 24.3294 26.1978 20.8664 25.1713L17.423 24.1506L13.9796 25.1717C12.9934 25.4648 11.9699 25.6134 10.9407 25.6137Z" fill="white"/>
</g>
</g>
</g>
</g>
</g>
</g>
<path id="Vector_4" fill-rule="evenodd" clip-rule="evenodd" d="M17.4215 23.6991L9.88494 19.3675C9.0489 18.7638 8.37084 17.9688 7.90792 17.0494C7.44498 16.13 7.21076 15.1133 7.22498 14.0849L7.2888 9.65112L10.3025 10.6372C10.3605 10.655 10.4144 10.6841 10.461 10.723C10.5075 10.7617 10.5459 10.8093 10.5738 10.863C10.6016 10.9167 10.6185 10.9754 10.6233 11.0356C10.6282 11.0958 10.621 11.1565 10.602 11.2139C10.5831 11.2714 10.5529 11.3245 10.5131 11.3701C10.4733 11.4158 10.4248 11.4531 10.3704 11.4799C10.316 11.5067 10.2568 11.5224 10.1962 11.5261C10.1356 11.5298 10.0749 11.5216 10.0176 11.5016L8.18533 10.903L8.13909 14.0979C8.12705 14.9763 8.32623 15.8447 8.71999 16.6308C9.11376 17.4168 9.69068 18.0976 10.4026 18.6162L17.4245 22.6495L24.5304 18.6152C25.2457 18.0973 25.8257 17.4158 26.2213 16.6281C26.6169 15.8404 26.8167 14.9695 26.8039 14.0889L26.7587 10.897L24.6706 11.5602C24.5551 11.5969 24.4296 11.5864 24.3219 11.531C24.2141 11.4755 24.1328 11.3797 24.096 11.2646C24.0591 11.1495 24.0697 11.0246 24.1253 10.9172C24.181 10.8099 24.2772 10.729 24.3928 10.6922L27.6557 9.65665L27.7181 14.0763C27.7327 15.1073 27.4974 16.1265 27.0321 17.0476C26.5669 17.9686 25.8854 18.7643 25.0455 19.367L25.0049 19.393L17.4215 23.6991Z" fill="white"/>
<path id="Vector_5" fill-rule="evenodd" clip-rule="evenodd" d="M17.4403 16.4648L11.0842 12.8459L17.4403 21.7955L23.6567 12.8459L17.4403 16.4648Z" fill="white"/>
<path id="Vector_6" fill-rule="evenodd" clip-rule="evenodd" d="M17.4409 0.986816L11.2832 11.2182L17.4283 14.9321L23.6578 11.2683L17.4409 0.986816Z" fill="white"/>
<g id="Mask group_2">
<mask id="mask2_395_690" style="mask-type:alpha" maskUnits="userSpaceOnUse" x="0" y="12" width="7" height="9">
<g id="Group_4">
<path id="Vector_7" d="M0.795898 12.9683H6.99222V20.1014H0.795898V12.9683Z" fill="white"/>
</g>
</mask>
<g mask="url(#mask2_395_690)">
<g id="Group_5">
<path id="Vector_8" fill-rule="evenodd" clip-rule="evenodd" d="M4.73431 19.6017C4.63078 19.6015 4.53036 19.5664 4.44947 19.502C4.36859 19.4376 4.31204 19.3478 4.28906 19.2473C3.98552 17.9184 3.12819 16.5013 1.81053 15.1489L1.29492 14.6214L1.99998 14.3981C3.55535 13.9056 4.91472 13.8385 6.15549 14.1954C6.27198 14.2288 6.37036 14.307 6.42897 14.4127C6.48759 14.5184 6.50166 14.643 6.46807 14.759C6.43449 14.875 6.356 14.973 6.24988 15.0314C6.14376 15.0898 6.0187 15.1038 5.90221 15.0703C5.01272 14.8151 4.07096 14.8131 2.98045 15.0703C4.12623 16.3767 4.88255 17.7397 5.18107 19.0456C5.19595 19.1123 5.19561 19.1815 5.18007 19.2481C5.16452 19.3148 5.13417 19.3771 5.09126 19.4304C5.04833 19.4837 4.99394 19.5269 4.93207 19.5565C4.87021 19.5862 4.80296 19.6015 4.73431 19.6017Z" fill="white"/>
</g>
</g>
</g>
<path id="Vector_9" fill-rule="evenodd" clip-rule="evenodd" d="M30.1557 19.6017C30.087 19.6016 30.0193 19.5862 29.9574 19.5565C29.8954 19.5269 29.8411 19.4836 29.7983 19.4302C29.7554 19.3768 29.7252 19.3144 29.7098 19.2477C29.6945 19.1811 29.6943 19.1118 29.7095 19.0451C30.0085 17.7392 30.7648 16.3767 31.9101 15.0703C30.8195 14.8131 29.8783 14.8151 28.9883 15.0703C28.9306 15.087 28.8703 15.0922 28.8107 15.0855C28.751 15.0789 28.6932 15.0606 28.6407 15.0317C28.5882 15.0028 28.5419 14.9638 28.5045 14.917C28.4671 14.8702 28.4394 14.8165 28.4229 14.759C28.4062 14.7017 28.4009 14.6415 28.4076 14.5821C28.4141 14.5228 28.4324 14.4652 28.4614 14.4128C28.4903 14.3605 28.5293 14.3144 28.5762 14.2771C28.6231 14.2397 28.6769 14.212 28.7346 14.1954C29.9758 13.8385 31.3357 13.9056 32.8905 14.3981L33.5956 14.6214L33.0805 15.1489C31.7623 16.5009 30.9055 17.9178 30.6015 19.2473C30.5785 19.3478 30.522 19.4376 30.441 19.502C30.3602 19.5664 30.2592 19.6015 30.1557 19.6017Z" fill="white"/>
<path id="Vector_10" fill-rule="evenodd" clip-rule="evenodd" d="M10.1498 9.71426C10.0854 9.71434 10.0217 9.70097 9.96294 9.67482C9.90409 9.64867 9.85153 9.6105 9.80856 9.56272C9.76567 9.51493 9.7333 9.45865 9.71371 9.39755C9.69421 9.33646 9.68782 9.27193 9.69499 9.2082L10.0588 5.96826L12.3379 7.51591C12.435 7.58513 12.5011 7.68946 12.522 7.80659C12.5429 7.92371 12.517 8.04433 12.4497 8.14266C12.3825 8.24099 12.2794 8.30923 12.1623 8.33278C12.0452 8.35634 11.9236 8.33334 11.8233 8.26871L10.7986 7.57297L10.6036 9.30931C10.5911 9.42055 10.538 9.52332 10.4542 9.59801C10.3705 9.67266 10.2622 9.71409 10.1498 9.71426Z" fill="white"/>
<path id="Vector_11" fill-rule="evenodd" clip-rule="evenodd" d="M24.5871 9.71409C24.476 9.71392 24.3688 9.67345 24.2855 9.60022C24.2022 9.52695 24.1487 9.42595 24.1348 9.31615L23.9107 7.56579L22.8765 8.26853C22.7762 8.33657 22.653 8.36216 22.5338 8.33968C22.4146 8.3172 22.3093 8.24849 22.241 8.14866C22.1727 8.04883 22.147 7.92607 22.1696 7.80737C22.1922 7.68868 22.2612 7.58377 22.3614 7.51573L24.6298 5.9751L25.0415 9.20153C25.0496 9.2657 25.0439 9.33086 25.0247 9.39268C25.0057 9.45449 24.9736 9.51154 24.9306 9.56003C24.8876 9.60853 24.8347 9.6473 24.7755 9.67388C24.7163 9.70046 24.6521 9.71418 24.5871 9.71409Z" fill="white"/>
<path id="Vector_12" fill-rule="evenodd" clip-rule="evenodd" d="M82.587 4.7395V12.5857H73.2093V4.7409H41.6934V23.3584H56.0919V20.4331H45.5298V15.5116H56.0926V12.5863H45.5298V7.66621H60.8339V23.3584H64.6688V7.66621H69.373V23.3584H73.2086V15.5116H82.587V23.3577H86.4219V4.7409L82.587 4.7395Z" fill="white"/>
<path id="Vector_13" fill-rule="evenodd" clip-rule="evenodd" d="M88.959 23.3577H91.9967V4.67896H88.959V23.3577Z" fill="white"/>
<path id="Vector_14" fill-rule="evenodd" clip-rule="evenodd" d="M94.6737 10.7102H97.6199V11.879C98.646 10.8663 99.8024 10.3599 101.088 10.3599C102.566 10.3599 103.718 10.823 104.543 11.7494C105.256 12.5365 105.613 13.8222 105.613 15.606V23.3581H102.667V16.2948C102.667 15.048 102.492 14.1872 102.145 13.7107C101.805 13.226 101.188 12.9836 100.293 12.9836C99.3192 12.9836 98.6279 13.304 98.2189 13.9448C97.8184 14.5765 97.6199 15.6805 97.6199 17.256V23.3594H94.6729V10.7102H94.6737Z" fill="white"/>
<path id="Vector_15" d="M109.844 16.9952C109.844 18.2079 110.17 19.1948 110.823 19.956C111.491 20.7271 112.335 21.1123 113.352 21.1123C114.438 21.1123 115.315 20.7403 115.985 19.9957C116.655 19.2247 116.99 18.2476 116.99 17.0607C116.99 15.8745 116.654 14.896 115.985 14.1256C115.315 13.3734 114.447 12.9959 113.378 12.9959C112.368 12.9959 111.525 13.3769 110.849 14.1381C110.179 14.9092 109.844 15.862 109.844 16.9952ZM116.807 4.67965H119.753V23.3592H116.807V22.0344C115.651 23.1606 114.343 23.7235 112.883 23.7235C111.144 23.7235 109.701 23.091 108.553 21.8269C107.413 20.5369 106.845 18.9267 106.845 16.9959C106.845 15.1091 107.414 13.5343 108.553 12.2694C109.684 10.9969 111.104 10.361 112.817 10.361C114.303 10.361 115.633 10.967 116.807 12.1789V4.67965Z" fill="white"/>
<path id="Vector_16" d="M121.852 23.358H124.785V10.7095H121.852V23.358ZM121.408 6.56319C121.408 6.05195 121.595 5.61037 121.969 5.23844C122.142 5.05885 122.351 4.91663 122.582 4.82055C122.814 4.72448 123.062 4.67659 123.313 4.67984C123.842 4.67984 124.294 4.86651 124.667 5.23844C125.041 5.60201 125.228 6.04777 125.228 6.57572C125.228 7.10367 125.041 7.55431 124.667 7.92624C124.495 8.10703 124.287 8.25005 124.056 8.34621C123.824 8.44238 123.576 8.48959 123.325 8.48484C123.073 8.48894 122.822 8.44149 122.589 8.34542C122.356 8.24935 122.145 8.10668 121.969 7.92624C121.595 7.55431 121.408 7.10019 121.408 6.56319Z" fill="white"/>
<path id="Vector_17" d="M129.301 16.9941C129.301 18.2067 129.627 19.1936 130.279 19.9549C130.947 20.726 131.791 21.1111 132.809 21.1111C133.894 21.1111 134.774 20.7392 135.442 19.9946C136.111 19.2236 136.446 18.2464 136.446 17.0596C136.446 15.8734 136.111 14.8949 135.442 14.1245C134.773 13.3723 133.904 12.9947 132.835 12.9947C131.826 12.9947 130.983 13.3757 130.305 14.1371C129.636 14.9081 129.301 15.8609 129.301 16.9941ZM136.263 10.7095H139.21V23.3581H136.263V22.0326C135.055 23.1588 133.755 23.7216 132.365 23.7216C130.608 23.7216 129.157 23.0892 128.009 21.8251C126.871 20.5351 126.303 18.9248 126.303 16.9941C126.303 15.0982 126.871 13.5186 128.009 12.2544C129.149 10.9902 130.574 10.3599 132.287 10.3599C133.764 10.3599 135.09 10.9645 136.263 12.1764V10.7095Z" fill="white"/>
</g>
<defs>
<clipPath id="clip0_395_690">
<rect width="138.941" height="25.0266" fill="white" transform="translate(0.529541 0.986816)"/>
</clipPath>
</defs>
</svg>
