<svg width="170" height="25" viewBox="0 0 170 25" fill="none" xmlns="http://www.w3.org/2000/svg">
<g id="IBS_Software" clip-path="url(#clip0_395_673)">
<g id="_1261840528">
<g id="Group">
<path id="Vector" fill-rule="evenodd" clip-rule="evenodd" d="M21.5369 15.1263C21.5369 12.7828 19.795 10.6818 17.2612 10.6818C14.8858 10.6818 12.9855 12.702 12.9855 15.1263C12.9855 17.7121 14.8066 19.6515 17.182 19.6515C19.6366 19.6515 21.5369 17.6313 21.5369 15.1263ZM8.07629 23.9343V0.5H13.223V7.77273C14.5691 6.31818 16.311 5.75252 18.1322 5.75252C22.5663 5.75252 26.6837 9.14646 26.6837 15.0455C26.6837 20.4596 23.2789 24.5808 17.9738 24.5808C15.9151 24.5808 13.8565 23.6111 13.0647 22.0758H12.9855V23.9343H8.07629Z" fill="#00A4AA"/>
<path id="Vector_2" fill-rule="evenodd" clip-rule="evenodd" d="M36.1853 11.4898C36.1853 10.5201 35.4726 10.1969 34.6017 10.1969C33.7307 10.1969 33.1764 10.6817 33.1764 11.3282C33.1764 12.2979 33.9682 12.7019 36.3436 13.3484C40.3818 14.4797 41.6487 16.0959 41.6487 18.6009C41.6487 22.2373 38.6399 24.4999 34.76 24.4999C30.9594 24.4999 28.1881 22.3181 27.8713 18.7626H32.9389C33.0972 19.8939 33.889 20.3787 34.8392 20.3787C35.7102 20.3787 36.5812 19.8939 36.5812 19.0858C36.5812 18.1161 36.0269 17.6312 33.4931 16.8232C29.2174 15.5302 28.1089 13.7524 28.1089 11.7322C28.1089 8.33831 31.2761 6.07568 34.6808 6.07568C38.3231 6.07568 40.9361 8.09589 41.1736 11.4898H36.1853Z" fill="#00A4AA"/>
<path id="Vector_3" fill-rule="evenodd" clip-rule="evenodd" d="M0.554199 8.17676V18.6818C0.554199 18.6818 0.554199 18.6818 0.554199 18.7626C0.554199 21.6717 2.85043 23.9343 5.70092 23.9343V18.7626V8.17676H0.554199Z" fill="#00A4AA"/>
</g>
<g id="Group_2">
<path id="Vector_4" fill-rule="evenodd" clip-rule="evenodd" d="M52.3381 11.4898C52.3381 10.5201 51.6255 10.1969 50.7545 10.1969C49.8835 10.1969 49.3292 10.6817 49.3292 11.3282C49.3292 12.2979 50.1211 12.7019 52.4965 13.3484C56.5347 14.4797 57.8015 16.0959 57.8015 18.6009C57.8015 22.2373 54.7135 24.4999 50.9129 24.4999C47.1122 24.4999 44.3409 22.3181 44.0242 18.7625H49.0917C49.2501 19.8939 50.0419 20.3787 50.992 20.3787C51.863 20.3787 52.734 19.8939 52.734 19.005C52.734 18.0353 52.1797 17.5504 49.646 16.7423C45.3702 15.4494 44.2617 13.6716 44.2617 11.6514C44.2617 8.2575 47.4289 5.99487 50.8337 5.99487C54.476 5.99487 57.0889 8.01507 57.3265 11.409H52.3381V11.4898Z" fill="#1A4869"/>
<path id="Vector_5" fill-rule="evenodd" clip-rule="evenodd" d="M71.9746 15.2878C71.9746 12.9444 70.2327 10.9242 67.8573 10.9242C65.6402 10.9242 63.8191 12.9444 63.8191 15.2878C63.8191 17.6312 65.6402 19.6514 67.9365 19.6514C70.2327 19.6514 71.9746 17.6312 71.9746 15.2878ZM67.8573 24.4999C62.7106 24.4999 58.6724 20.6211 58.6724 15.2878C58.6724 9.87366 62.7897 6.07568 67.8573 6.07568C73.004 6.07568 77.0422 9.95447 77.0422 15.207C77.0422 20.7019 73.004 24.4999 67.8573 24.4999Z" fill="#1A4869"/>
<path id="Vector_6" fill-rule="evenodd" clip-rule="evenodd" d="M111.644 23.9343L108.873 12.8636H108.794L105.943 23.9343H101.034L95.8872 6.64136H101.192L103.726 17.5504H103.805L106.656 6.64136H111.011L113.861 17.5504H113.94L116.474 6.64136H121.779L116.553 23.9343H111.644Z" fill="#1A4869"/>
<path id="Vector_7" fill-rule="evenodd" clip-rule="evenodd" d="M134.685 15.2878C134.685 12.8636 132.785 10.9242 130.41 10.9242C128.113 10.9242 126.292 12.8636 126.292 15.3686C126.292 17.7929 128.193 19.7322 130.489 19.7322C132.864 19.7322 134.685 17.7929 134.685 15.2878ZM134.685 23.9343V22.0757H134.606C133.894 23.611 131.835 24.4999 129.618 24.4999C124.629 24.4999 121.146 20.4595 121.146 15.2878C121.146 10.1969 124.788 6.07568 129.618 6.07568C131.676 6.07568 133.577 6.88376 134.606 8.49993H134.685V6.64134H139.753V23.9343H134.685Z" fill="#1A4869"/>
<path id="Vector_8" fill-rule="evenodd" clip-rule="evenodd" d="M164.932 13.3484C164.536 11.5706 163.032 10.3585 161.053 10.3585C159.231 10.3585 157.648 11.4898 157.252 13.3484H164.932ZM157.173 16.904C157.489 18.8434 159.073 20.2171 161.132 20.2171C162.478 20.2171 163.428 19.6514 164.22 18.6009H169.446C167.862 22.3989 164.774 24.5807 161.132 24.5807C156.223 24.5807 152.184 20.5403 152.184 15.4494C152.184 10.4393 156.064 6.15649 161.053 6.15649C166.12 6.15649 170 10.2777 170 15.611C170 16.0959 170 16.4999 169.842 16.9848H157.173V16.904Z" fill="#1A4869"/>
<path id="Vector_9" fill-rule="evenodd" clip-rule="evenodd" d="M146.404 8.49993L146.325 6.64134H141.495V18.3585V18.6009C141.495 21.51 143.791 23.8535 146.642 23.8535V18.3585V14.4797C146.642 12.4595 147.671 11.3282 150.68 11.2474V6.07568C148.78 6.07568 147.354 6.64134 146.404 8.49993Z" fill="#1A4869"/>
<path id="Vector_10" fill-rule="evenodd" clip-rule="evenodd" d="M94.4619 6.64142H93.1951V0.823242H88.0483V6.64142H83.6142C83.6142 5.51011 84.0101 4.78284 85.5146 4.78284H85.8313V0.823242H85.1979C80.3679 0.823242 78.4675 2.68183 78.4675 6.23738V6.64142V10.601V18.3586V18.601C78.4675 21.5101 80.7638 23.8535 83.6142 23.8535V18.3586V10.601H88.0483V18.3586V18.601C88.0483 21.5101 90.3446 23.8535 93.1951 23.8535V18.3586V10.601H95.6496L94.4619 6.64142Z" fill="#1A4869"/>
</g>
<path id="Vector_11" fill-rule="evenodd" clip-rule="evenodd" d="M3.16721 6.96465C4.90918 6.96465 6.33442 5.5101 6.33442 3.73232C6.33442 1.95455 4.90918 0.5 3.16721 0.5C1.42524 0.5 0 1.95455 0 3.73232C0 5.5101 1.42524 6.96465 3.16721 6.96465Z" fill="#CA3433"/>
</g>
</g>
<defs>
<clipPath id="clip0_395_673">
<rect width="170" height="24" fill="white" transform="translate(0 0.5)"/>
</clipPath>
</defs>
</svg>
